<svg width="24" height="24" viewBox="0 0 24 24" fill="none" xmlns="http://www.w3.org/2000/svg">
<path d="M7.43365 0.0984366L7.31178 0.192187V1.2C7.31178 1.97344 7.29772 2.20312 7.25553 2.20312C7.22272 2.20312 6.93209 2.0625 6.60865 1.89375C6.28522 1.725 5.96178 1.56562 5.89147 1.54687C5.72272 1.49531 5.55865 1.56562 5.48834 1.72031C5.45084 1.8 5.43678 2.76094 5.43678 4.93594V8.03906L4.91647 8.025C4.59772 8.01562 4.34459 8.02969 4.2649 8.0625C4.0024 8.17031 4.0024 8.10937 4.28365 10.95C4.4524 12.6047 4.57428 13.6266 4.61647 13.7203C4.69615 13.8937 4.86959 13.9594 5.04303 13.8797C5.28209 13.7719 5.28209 13.7719 5.01959 11.1891C4.88834 9.87187 4.78053 8.77031 4.78053 8.74687C4.78053 8.72344 4.93522 8.71406 5.12272 8.72812C5.55865 8.75625 5.82115 8.89219 5.98522 9.17812C6.09772 9.36562 6.10709 9.44531 6.1399 10.1391C6.18678 11.1891 6.32272 11.5406 6.91803 12.1266C7.25553 12.4594 7.73834 12.7125 8.17428 12.7922C8.55865 12.8625 15.4399 12.8625 15.8243 12.7922C16.2602 12.7125 16.743 12.4594 17.0805 12.1266C17.6758 11.5406 17.8118 11.1891 17.8587 10.1391C17.8915 9.44531 17.9008 9.36562 18.0133 9.17812C18.1774 8.89219 18.4399 8.75625 18.8758 8.72812C19.1383 8.70937 19.218 8.71875 19.218 8.76562C19.218 8.85469 18.618 14.7937 18.5852 15.0328L18.5571 15.2344H16.4243H14.2962L14.0149 15.0281C13.3868 14.5641 12.7915 14.3719 11.9993 14.3719C11.2071 14.3719 10.6118 14.5641 9.98365 15.0281L9.7024 15.2344H7.57428H5.44615L5.41334 15.0797C5.36178 14.8547 5.26334 14.7656 5.05709 14.7656C4.83678 14.7656 4.73365 14.8922 4.73365 15.1547C4.73365 15.2578 4.92584 17.2078 5.15553 19.4953C5.3899 21.7828 5.5774 23.6766 5.5774 23.7094C5.5774 23.7422 5.62897 23.8219 5.69459 23.8828L5.80709 24H11.9758C16.0915 24 18.1774 23.9859 18.2337 23.9531C18.379 23.8734 18.4118 23.7703 18.4727 23.1422L18.529 22.5469L18.4212 22.4297C18.2805 22.2797 18.079 22.275 17.9337 22.4203C17.8446 22.5094 17.8165 22.6031 17.7883 22.9125L17.7555 23.2969H11.9946H6.23365V23.1891C6.23365 23.1328 6.14928 22.3125 6.05553 21.3609C5.95709 20.4141 5.88678 19.6312 5.89615 19.6172C5.91022 19.6031 6.6649 19.5937 7.56959 19.5937H9.21959L9.36959 19.8094C9.67897 20.2359 10.4055 20.7375 10.9915 20.9203C11.5774 21.1078 12.4212 21.1078 13.0071 20.9203C13.593 20.7375 14.3196 20.2359 14.629 19.8094L14.7837 19.5937L16.4477 19.6031C17.5258 19.6125 18.1165 19.6359 18.1118 19.6641C18.1071 19.6875 18.0743 20.0344 18.0415 20.4281C17.9758 21.225 17.9993 21.3703 18.2008 21.4406C18.4071 21.5156 18.5758 21.4266 18.6415 21.2109C18.6743 21.1078 18.9883 18.1687 19.3399 14.6766C19.8555 9.50156 19.9633 8.30625 19.9165 8.22187C19.8274 8.04844 19.6493 8.00625 19.0821 8.025L18.5618 8.03906V5.84531V3.65156L18.4399 3.52969C18.3462 3.43594 18.2946 3.41719 18.1727 3.44062C17.8446 3.50156 17.8587 3.40781 17.8587 6V8.33906L17.7274 8.44687C17.3149 8.78437 17.2024 9.09844 17.1602 10.0547C17.1415 10.4766 17.104 10.8469 17.0712 10.8984C17.029 10.9687 17.0196 10.2656 17.0149 7.86562V4.74375L16.8696 4.61719C16.7852 4.55156 16.6399 4.45312 16.5415 4.40156L16.3587 4.3125V3.19219V2.07187L17.0993 1.65L17.8352 1.22344L17.8587 1.79531C17.8727 2.10937 17.9008 2.40469 17.9243 2.44687C17.9758 2.55469 18.1868 2.62031 18.3227 2.56875C18.5477 2.48906 18.5571 2.42812 18.5618 1.425C18.5618 -0.0328135 18.5805 -0.028126 16.9118 0.937499C16.1337 1.39219 15.7399 1.64531 15.7071 1.72031C15.6743 1.79062 15.6555 2.22656 15.6555 2.86406V3.89531L15.5149 3.81094L15.3743 3.73125V2.77969C15.3743 1.76719 15.3508 1.64062 15.154 1.55156C14.9993 1.48125 14.9571 1.49531 14.3337 1.85625C14.043 2.02031 13.7899 2.15625 13.7712 2.15625C13.7477 2.15625 13.7337 1.71562 13.7337 1.17656V0.192187L13.6118 0.0984366C13.5415 0.0421865 13.4477 -9.53674e-07 13.3962 -9.53674e-07C13.2977 -9.53674e-07 11.1508 1.22344 10.9821 1.37344C10.879 1.46719 10.8743 1.49531 10.8743 2.30625C10.8743 2.76562 10.8602 3.14062 10.8415 3.14062C10.818 3.14062 10.668 3.06094 10.4993 2.9625L10.1946 2.78437L10.1805 2.12344C10.1712 1.51406 10.1618 1.4625 10.0633 1.37344C9.89459 1.22344 7.74303 -9.53674e-07 7.64928 -9.53674e-07C7.59772 -9.53674e-07 7.50397 0.0421865 7.43365 0.0984366ZM9.01334 1.54687L9.46803 1.80469V2.08594V2.36719L9.31803 2.37187C9.22428 2.37656 9.1399 2.41875 9.08365 2.48437C9.00397 2.58281 8.99928 2.81719 8.99928 7.36406V12.1406H8.74147C8.60553 12.1406 8.38053 12.1172 8.24928 12.0891L8.0149 12.0375V6.51094V0.979687L8.28678 1.13437C8.43678 1.21875 8.7649 1.40625 9.01334 1.54687ZM13.0305 1.79531V2.60625L12.8383 2.71875C12.7305 2.775 12.604 2.86406 12.5571 2.91094C12.4727 2.99531 12.468 3.18281 12.468 7.57031V12.1406H12.1868H11.9055V8.03906C11.9055 5.1375 11.8915 3.90937 11.854 3.82969C11.8258 3.76406 11.7508 3.68437 11.6899 3.65156L11.5774 3.59531V2.7L11.5821 1.80469L12.2946 1.39687C12.6837 1.17187 13.0118 0.984374 13.0212 0.984374C13.0258 0.984374 13.0305 1.35 13.0305 1.79531ZM7.3024 7.26094C7.30709 9.58125 7.29772 11.4844 7.27897 11.4844C7.21334 11.4844 7.01647 11.1562 6.93209 10.9078C6.87115 10.7344 6.84772 10.5187 6.84303 10.1719C6.84303 9.27656 6.72115 8.88281 6.34615 8.51719L6.1399 8.32031V5.37656V2.42812L6.71647 2.73281L7.28834 3.03281L7.3024 7.26094ZM14.6712 2.88281V3.28125H14.493C14.3665 3.28125 14.2821 3.31406 14.2212 3.37969C14.1368 3.47344 14.1321 3.62344 14.118 7.80937L14.1087 12.1406H13.6399H13.1712V7.73906V3.3375L13.9118 2.91094C14.3149 2.67656 14.6524 2.48437 14.6618 2.48437C14.6665 2.48437 14.6712 2.6625 14.6712 2.88281ZM10.4899 3.76406L11.2024 4.18125V8.16094V12.1406H10.4524H9.7024V7.72969C9.7024 5.30625 9.72115 3.32812 9.7399 3.3375C9.75865 3.34219 10.0962 3.53906 10.4899 3.76406ZM15.604 4.67344L16.3118 5.08125V8.46562V11.85L16.204 11.9203C16.0024 12.0516 15.5993 12.1406 15.2008 12.1406H14.8118V8.20312C14.8118 5.82187 14.8305 4.26562 14.854 4.26562C14.8774 4.26562 15.2149 4.44844 15.604 4.67344ZM12.8477 15.1969C13.3024 15.3656 13.579 15.5391 13.9024 15.8719C14.9149 16.8937 14.9008 18.5672 13.8743 19.5937C12.843 20.625 11.1555 20.625 10.1243 19.5937C9.49615 18.9656 9.2149 18.0422 9.39303 17.2031C9.61803 16.1297 10.4243 15.3281 11.5071 15.0937C11.8352 15.0187 12.5055 15.075 12.8477 15.1969ZM9.09303 15.9844C9.09303 16.0125 9.04615 16.125 8.99459 16.2281C8.61959 16.9594 8.53522 17.9859 8.78834 18.7078L8.85397 18.8906H7.33522H5.81647L5.79303 18.7359C5.75084 18.4922 5.53053 16.2562 5.53053 16.0875V15.9375H7.31178C8.51178 15.9375 9.09303 15.9516 9.09303 15.9844ZM18.468 16.0875C18.468 16.2562 18.2477 18.4922 18.2055 18.7359L18.1821 18.8906H16.6633H15.1446L15.2102 18.7078C15.4633 17.9859 15.379 16.9594 15.004 16.2281C14.9524 16.125 14.9055 16.0125 14.9055 15.9844C14.9055 15.9516 15.4868 15.9375 16.6868 15.9375H18.468V16.0875Z" fill="black"/>
<path d="M11.2067 16.8562C11.0942 17.0016 11.0848 17.0578 11.1598 17.2219C11.2395 17.3906 11.427 17.4375 11.9989 17.4375C12.5707 17.4375 12.7582 17.3906 12.8379 17.2219C12.9129 17.0578 12.9035 17.0016 12.791 16.8562L12.6973 16.7344H11.9989H11.3004L11.2067 16.8562Z" fill="black"/>
<path d="M10.5136 17.8453C10.2792 17.8922 10.1855 18.2484 10.3589 18.4219C10.448 18.5109 10.5136 18.5156 11.9995 18.5156C13.4855 18.5156 13.5511 18.5109 13.6401 18.4219C13.7573 18.3047 13.762 18.0891 13.6448 17.9484L13.5558 17.8359L12.0839 17.8313C11.2776 17.8266 10.5698 17.8313 10.5136 17.8453Z" fill="black"/>
</svg>
